<svg xmlns="http://www.w3.org/2000/svg" viewBox="0 0 295 40" role="img" aria-label="Logo Maia">
  <title>Logo Maia</title>
  <!-- text "maiasolution" — fill changes per theme via CSS var -->
  <path class="logo-text" fill="#141D3A" d="M 104.906 27.216 C 104.765 25.135 104.594 23.056 104.391 20.979 C 104.255 19.583 104.1 18.189 103.926 16.798 C 103.841 16.098 103.251 15.572 102.551 15.571 L 99.731 15.571 C 99.216 15.571 98.744 15.856 98.504 16.327 C 98.194 16.941 97.848 17.64 97.474 18.425 C 96.898 19.644 96.338 20.871 95.797 22.107 C 95.202 23.448 94.624 24.797 94.062 26.153 C 93.583 27.301 93.131 28.4 92.702 29.435 C 92.659 29.536 92.56 29.602 92.451 29.602 C 92.342 29.602 92.243 29.536 92.201 29.435 C 91.771 28.4 91.319 27.301 90.84 26.153 C 90.279 24.797 89.7 23.448 89.105 22.107 C 88.561 20.873 88.002 19.646 87.428 18.425 C 87.054 17.641 86.708 16.941 86.399 16.327 C 86.162 15.864 85.689 15.573 85.171 15.571 L 82.112 15.571 C 81.414 15.571 80.828 16.092 80.737 16.798 C 80.56 18.189 80.404 19.583 80.271 20.979 C 80.081 22.978 79.905 25.054 79.757 27.216 C 79.609 29.382 79.473 31.549 79.348 33.717 C 79.256 35.336 79.172 36.884 79.094 38.362 C 79.071 38.746 79.206 39.122 79.468 39.403 C 79.729 39.684 80.094 39.844 80.476 39.846 L 82.873 39.846 C 83.621 39.846 84.234 39.246 84.255 38.483 C 84.319 36.507 84.396 34.394 84.488 32.146 C 84.587 29.742 84.727 27.316 84.911 24.869 C 84.932 24.583 85.327 24.511 85.439 24.775 C 85.728 25.467 86.046 26.21 86.377 26.995 C 86.878 28.187 87.379 29.378 87.872 30.57 C 88.365 31.761 88.838 32.903 89.296 33.988 C 89.592 34.694 89.867 35.336 90.107 35.914 C 90.32 36.43 90.82 36.768 91.376 36.77 L 93.273 36.77 C 93.83 36.77 94.33 36.435 94.542 35.914 C 94.782 35.337 95.049 34.694 95.353 33.988 C 95.811 32.903 96.283 31.761 96.777 30.57 C 97.27 29.378 97.764 28.187 98.271 26.995 C 98.603 26.21 98.913 25.467 99.209 24.775 C 99.322 24.511 99.717 24.583 99.738 24.869 C 99.922 27.309 100.062 29.735 100.161 32.147 C 100.253 34.394 100.33 36.514 100.394 38.482 C 100.41 39.239 101.023 39.844 101.776 39.846 L 104.18 39.846 C 104.969 39.846 105.597 39.175 105.554 38.362 C 105.477 36.884 105.399 35.336 105.3 33.723 C 105.174 31.555 105.054 29.378 104.906 27.216 Z M 124.774 25.31 C 124.52 24.397 124.09 23.634 123.483 22.992 C 122.877 22.357 122.074 21.865 121.072 21.522 C 120.071 21.179 118.817 21.008 117.308 21.008 C 116.715 21.008 116.13 21.036 115.545 21.093 C 114.991 21.149 114.439 21.218 113.888 21.301 C 113.403 21.373 112.921 21.463 112.443 21.571 C 111.813 21.712 111.4 22.321 111.498 22.963 L 111.759 24.597 C 111.812 24.933 112.002 25.233 112.282 25.423 C 112.563 25.614 112.91 25.679 113.24 25.604 C 113.546 25.536 113.854 25.479 114.163 25.432 C 115.009 25.304 115.862 25.247 116.729 25.247 C 118.027 25.247 118.943 25.51 119.465 26.031 C 119.987 26.56 120.254 27.252 120.254 28.115 L 120.254 28.593 C 119.937 28.5 119.522 28.429 119.007 28.372 C 118.421 28.311 117.833 28.283 117.244 28.286 C 116.264 28.286 115.319 28.386 114.403 28.579 C 113.493 28.771 112.682 29.085 111.977 29.521 C 111.277 29.95 110.696 30.548 110.285 31.262 C 109.862 31.989 109.651 32.882 109.651 33.931 C 109.651 34.979 109.834 35.95 110.2 36.699 C 110.555 37.437 111.097 38.068 111.773 38.526 C 112.457 38.989 113.274 39.333 114.22 39.533 C 115.165 39.739 116.222 39.846 117.385 39.846 C 119.232 39.846 120.805 39.732 122.102 39.518 C 122.785 39.407 123.467 39.286 124.146 39.154 C 124.726 39.047 125.147 38.54 125.148 37.947 L 125.148 28.352 C 125.148 27.238 125.02 26.218 124.774 25.311 Z M 120.262 34.744 C 120.255 35.358 119.772 35.86 119.162 35.885 C 118.703 35.907 118.224 35.922 117.723 35.922 C 116.786 35.922 116.053 35.765 115.517 35.457 C 114.981 35.15 114.713 34.594 114.713 33.802 C 114.713 33.395 114.805 33.053 114.988 32.775 C 115.177 32.494 115.437 32.27 115.742 32.125 C 116.06 31.969 116.434 31.854 116.857 31.797 C 117.305 31.738 117.757 31.709 118.21 31.711 C 118.556 31.711 118.943 31.733 119.352 31.783 C 119.872 31.84 120.265 32.284 120.262 32.81 Z M 133.009 21.008 L 130.682 21.008 C 129.92 21.008 129.3 21.657 129.3 22.457 L 129.3 38.391 C 129.3 39.19 129.92 39.839 130.682 39.839 L 133.009 39.839 C 133.771 39.839 134.391 39.189 134.391 38.39 L 134.391 22.457 C 134.391 21.658 133.771 21.009 133.009 21.009 Z M 153.646 25.31 C 153.392 24.397 152.962 23.634 152.355 22.992 C 151.749 22.357 150.945 21.865 149.944 21.522 C 148.943 21.179 147.688 21.008 146.18 21.008 C 145.587 21.008 145.002 21.036 144.417 21.093 C 143.863 21.149 143.31 21.218 142.76 21.301 C 142.238 21.379 141.751 21.472 141.307 21.571 C 140.682 21.718 140.274 22.324 140.369 22.963 L 140.631 24.597 C 140.684 24.933 140.873 25.233 141.154 25.423 C 141.434 25.614 141.781 25.679 142.111 25.604 C 142.4 25.539 142.711 25.482 143.035 25.432 C 143.881 25.304 144.734 25.247 145.601 25.247 C 146.898 25.247 147.815 25.51 148.337 26.031 C 148.858 26.56 149.126 27.252 149.126 28.115 L 149.126 28.593 C 148.809 28.5 148.393 28.429 147.878 28.372 C 147.363 28.315 146.778 28.286 146.115 28.286 C 145.135 28.286 144.191 28.386 143.274 28.579 C 142.365 28.771 141.554 29.085 140.849 29.521 C 140.149 29.95 139.567 30.548 139.157 31.262 C 138.734 31.989 138.523 32.882 138.523 33.931 C 138.523 34.979 138.706 35.95 139.072 36.699 C 139.426 37.437 139.969 38.068 140.645 38.526 C 141.329 38.989 142.146 39.333 143.091 39.533 C 144.036 39.739 145.094 39.839 146.257 39.839 C 148.104 39.839 149.676 39.732 150.974 39.518 C 151.657 39.407 152.339 39.286 153.018 39.154 C 153.598 39.047 154.019 38.54 154.02 37.947 L 154.02 28.352 C 154.02 27.238 153.892 26.218 153.646 25.311 Z M 149.126 34.744 C 149.12 35.358 148.636 35.86 148.026 35.885 C 147.568 35.907 147.089 35.922 146.588 35.922 C 145.651 35.922 144.917 35.765 144.381 35.457 C 143.846 35.15 143.577 34.594 143.577 33.802 C 143.577 33.395 143.669 33.053 143.852 32.775 C 144.042 32.494 144.302 32.27 144.607 32.125 C 144.958 31.956 145.335 31.845 145.721 31.797 C 146.17 31.738 146.622 31.709 147.075 31.711 C 147.42 31.711 147.808 31.733 148.217 31.783 C 148.737 31.84 149.129 32.284 149.126 32.81 Z M 173.33 28.087 C 172.724 27.502 171.97 26.995 171.06 26.56 C 170.151 26.124 169.079 25.682 167.845 25.232 C 167.253 25.032 166.71 24.832 166.224 24.647 C 165.772 24.475 165.338 24.26 164.926 24.005 C 164.552 23.77 164.257 23.505 164.052 23.213 C 163.847 22.92 163.742 22.563 163.742 22.135 C 163.742 21.422 164.024 20.887 164.581 20.537 C 165.138 20.187 166.055 20.016 167.33 20.016 C 168.472 20.016 169.446 20.144 170.256 20.401 C 170.616 20.516 170.969 20.644 171.3 20.773 C 171.608 20.898 171.953 20.894 172.258 20.761 C 172.563 20.628 172.802 20.378 172.921 20.066 L 173.606 18.225 C 173.835 17.594 173.522 16.894 172.9 16.648 C 172.32 16.421 171.729 16.221 171.131 16.049 C 169.967 15.713 168.586 15.542 166.992 15.542 C 165.646 15.542 164.44 15.706 163.368 16.027 C 162.297 16.356 161.387 16.819 160.632 17.426 C 159.893 18.016 159.298 18.768 158.891 19.624 C 158.482 20.487 158.278 21.457 158.278 22.528 C 158.278 23.598 158.468 24.519 158.856 25.268 C 159.227 25.999 159.737 26.648 160.358 27.18 C 160.987 27.716 161.69 28.158 162.444 28.493 C 163.206 28.836 163.982 29.146 164.771 29.421 C 166.548 30.006 167.803 30.548 168.529 31.048 C 169.255 31.554 169.622 32.182 169.622 32.946 C 169.622 33.302 169.566 33.631 169.452 33.923 C 169.34 34.216 169.135 34.466 168.839 34.68 C 168.543 34.894 168.149 35.058 167.662 35.187 C 167.169 35.307 166.548 35.372 165.801 35.372 C 164.298 35.372 163.023 35.222 161.986 34.915 C 161.494 34.77 161.007 34.606 160.527 34.423 C 160.217 34.299 159.871 34.307 159.567 34.444 C 159.263 34.581 159.027 34.836 158.912 35.15 L 158.235 37.027 C 158.017 37.634 158.306 38.312 158.906 38.569 L 159.039 38.626 C 159.504 38.826 160.069 39.018 160.717 39.197 C 161.455 39.392 162.204 39.545 162.959 39.653 C 163.806 39.775 164.743 39.846 165.794 39.846 C 168.917 39.846 171.258 39.239 172.809 38.04 C 174.36 36.842 175.135 35.158 175.135 32.982 C 175.135 31.861 174.987 30.912 174.691 30.127 C 174.401 29.35 173.938 28.649 173.338 28.079 Z M 194.461 23.591 C 193.675 22.77 192.729 22.122 191.683 21.686 C 190.597 21.229 189.412 21.008 188.108 21.008 C 186.804 21.008 185.655 21.236 184.569 21.686 C 183.515 22.123 182.56 22.771 181.763 23.591 C 180.973 24.405 180.36 25.396 179.915 26.552 C 179.472 27.708 179.246 28.993 179.246 30.391 C 179.246 31.79 179.464 33.081 179.895 34.252 C 180.324 35.421 180.931 36.413 181.706 37.242 C 182.488 38.074 183.438 38.728 184.492 39.161 C 185.577 39.618 186.783 39.846 188.108 39.846 C 189.433 39.846 190.661 39.61 191.746 39.161 C 192.801 38.73 193.751 38.075 194.531 37.241 C 195.307 36.414 195.899 35.415 196.307 34.251 C 196.717 33.082 196.921 31.797 196.921 30.391 C 196.921 28.985 196.703 27.708 196.273 26.552 C 195.842 25.396 195.236 24.412 194.461 23.591 Z M 190.787 34.116 C 190.16 35.036 189.264 35.493 188.101 35.493 C 186.938 35.493 186.035 35.036 185.401 34.116 C 184.759 33.196 184.442 31.954 184.442 30.391 C 184.442 28.828 184.759 27.601 185.401 26.702 C 186.035 25.81 186.938 25.361 188.101 25.361 C 189.264 25.361 190.16 25.81 190.787 26.702 C 191.415 27.601 191.725 28.828 191.725 30.391 C 191.725 31.954 191.407 33.196 190.787 34.116 Z M 207.75 35.865 C 207.665 35.838 207.581 35.809 207.497 35.779 C 207.13 35.636 206.855 35.443 206.658 35.215 C 206.46 34.971 206.324 34.682 206.263 34.373 C 206.189 34.002 206.154 33.624 206.158 33.245 L 206.158 16.827 C 206.158 16.049 205.396 15.457 204.55 15.578 L 202.223 15.921 C 201.553 16.021 201.06 16.548 201.06 17.169 L 201.06 34.18 C 201.06 35.058 201.158 35.843 201.349 36.542 C 201.534 37.23 201.914 37.85 202.442 38.325 C 202.978 38.818 203.704 39.197 204.627 39.467 C 205.269 39.653 206.038 39.775 206.947 39.846 C 207.666 39.903 208.322 39.461 208.442 38.804 L 208.724 37.298 C 208.844 36.663 208.421 36.057 207.75 35.865 Z M 227.019 21.008 L 224.693 21.008 C 223.931 21.008 223.311 21.643 223.311 22.428 L 223.311 34.13 C 223.311 34.758 222.846 35.293 222.233 35.344 C 221.841 35.377 221.448 35.394 221.055 35.393 C 219.87 35.393 219.059 35.022 218.63 34.273 C 218.199 33.524 217.981 32.311 217.981 30.634 L 217.981 22.421 C 217.981 21.637 217.361 21.001 216.599 21.001 L 214.273 21.001 C 213.511 21.001 212.89 21.636 212.89 22.421 L 212.89 31.262 C 212.89 32.525 213.018 33.68 213.264 34.73 C 213.518 35.779 213.934 36.685 214.527 37.441 C 215.118 38.197 215.922 38.789 216.938 39.211 C 217.953 39.632 219.215 39.846 220.745 39.846 C 222.275 39.846 223.692 39.724 225.059 39.504 C 225.823 39.384 226.583 39.238 227.337 39.068 C 227.964 38.926 228.408 38.348 228.408 37.684 L 228.408 22.414 C 228.408 21.63 227.781 21.008 227.019 21.008 Z M 244.019 36.335 C 243.877 35.551 243.151 35.03 242.39 35.187 L 242.157 35.229 C 241.579 35.336 241.015 35.386 240.465 35.386 C 239.322 35.386 238.568 35.058 238.188 34.395 C 237.814 33.737 237.624 32.853 237.624 31.74 L 237.624 25.482 C 237.624 25.325 237.75 25.197 237.913 25.197 L 242.362 25.197 C 243.123 25.197 243.743 24.554 243.743 23.762 L 243.743 22.243 C 243.743 21.451 243.123 20.808 242.362 20.808 L 237.899 20.808 C 237.826 20.81 237.756 20.782 237.704 20.731 C 237.653 20.68 237.624 20.61 237.624 20.537 L 237.624 17.005 C 237.624 16.12 236.862 15.449 236.016 15.592 L 233.69 15.977 C 233.019 16.092 232.526 16.691 232.526 17.391 L 232.526 31.811 C 232.526 33.017 232.632 34.109 232.85 35.101 C 233.069 36.093 233.45 36.935 233.993 37.634 C 234.542 38.333 235.268 38.875 236.178 39.261 C 237.088 39.653 238.244 39.846 239.633 39.846 C 240.725 39.846 241.649 39.753 242.404 39.561 C 242.707 39.482 242.996 39.404 243.278 39.318 C 243.955 39.103 244.371 38.405 244.244 37.684 Z M 252.126 21.008 L 249.799 21.008 C 249.038 21.008 248.418 21.657 248.418 22.457 L 248.418 38.397 C 248.418 39.197 249.038 39.846 249.799 39.846 L 252.126 39.846 C 252.888 39.846 253.508 39.197 253.508 38.397 L 253.508 22.457 C 253.508 21.657 252.888 21.008 252.126 21.008 Z M 272.869 23.591 C 272.093 22.777 271.162 22.143 270.084 21.686 C 268.998 21.229 267.814 21.008 266.509 21.008 C 265.205 21.008 264.056 21.236 262.97 21.686 C 261.916 22.123 260.961 22.771 260.164 23.591 C 259.374 24.405 258.761 25.396 258.317 26.552 C 257.873 27.708 257.647 28.993 257.647 30.391 C 257.647 31.79 257.865 33.081 258.296 34.252 C 258.725 35.421 259.331 36.413 260.108 37.242 C 260.889 38.074 261.839 38.728 262.892 39.161 C 263.978 39.618 265.184 39.846 266.509 39.846 C 267.834 39.846 269.062 39.61 270.148 39.161 C 271.202 38.73 272.152 38.075 272.932 37.241 C 273.708 36.414 274.3 35.415 274.709 34.251 C 275.117 33.082 275.322 31.797 275.322 30.391 C 275.322 28.985 275.103 27.708 274.674 26.552 C 274.243 25.396 273.644 24.412 272.869 23.591 Z M 269.195 34.116 C 268.568 35.036 267.673 35.493 266.509 35.493 C 265.346 35.493 264.443 35.036 263.809 34.116 C 263.168 33.196 262.85 31.954 262.85 30.391 C 262.85 28.828 263.168 27.601 263.809 26.702 C 264.443 25.81 265.346 25.361 266.509 25.361 C 267.673 25.361 268.568 25.81 269.195 26.702 C 269.823 27.601 270.133 28.828 270.133 30.391 C 270.133 31.954 269.816 33.196 269.195 34.116 Z M 294.626 26.017 C 294.372 24.989 293.957 24.105 293.364 23.356 C 292.772 22.606 291.968 22.028 290.953 21.622 C 289.938 21.215 288.669 21.007 287.139 21.007 C 285.609 21.007 284.199 21.122 282.831 21.343 C 282.068 21.467 281.309 21.612 280.554 21.779 C 279.926 21.921 279.482 22.5 279.482 23.163 L 279.482 38.426 C 279.482 39.211 280.103 39.846 280.864 39.846 L 283.191 39.846 C 283.952 39.846 284.572 39.211 284.572 38.426 L 284.572 25.874 C 284.572 25.732 284.678 25.61 284.819 25.596 C 285.08 25.561 285.362 25.532 285.672 25.504 C 286.059 25.47 286.447 25.453 286.836 25.453 C 288.02 25.453 288.831 25.803 289.261 26.502 C 289.691 27.201 289.909 28.393 289.909 30.07 L 289.909 38.419 C 289.909 39.203 290.537 39.846 291.298 39.846 L 293.625 39.846 C 294.386 39.846 295 39.204 295 38.419 L 295 29.435 C 295 28.172 294.873 27.045 294.626 26.017 Z"/>
  <!-- dots on "i" letters — always blue #2A33FF -->
  <path fill="#2A33FF" d="M 133.056 11.842 L 130.278 11.842 C 129.637 11.842 129.122 12.355 129.122 12.998 L 129.122 15.759 C 129.122 16.394 129.644 16.915 130.278 16.915 L 133.056 16.915 C 133.697 16.915 134.212 16.402 134.212 15.759 L 134.212 12.999 C 134.212 12.363 133.691 11.842 133.056 11.842 Z M 252.173 11.842 L 249.396 11.842 C 248.754 11.842 248.239 12.355 248.239 12.998 L 248.239 15.759 C 248.239 16.394 248.761 16.915 249.396 16.915 L 252.173 16.915 C 252.815 16.915 253.33 16.402 253.33 15.759 L 253.33 12.999 C 253.33 12.363 252.808 11.842 252.173 11.842 Z"/>
  <!-- chevron verde #A3F700 -->
  <path fill="#A3F700" d="M 16.063 17.994 C 15.168 16.681 13.236 16.703 12.369 18.037 L 0.369 36.51 C -0.604 38.009 0.461 40 2.231 40 L 9.697 40 C 10.448 39.999 11.147 39.618 11.558 38.987 L 19.92 26.115 C 20.419 25.347 20.408 24.352 19.892 23.595 Z"/>
  <!-- chevron cyan #38D7FC -->
  <path fill="#38D7FC" d="M 27.011 1.014 C 26.13 -0.342 24.17 -0.334 23.288 1.014 L 19.496 6.858 C 19.004 7.616 19.007 8.594 19.503 9.349 L 28.879 23.57 C 29.375 24.324 29.378 25.303 28.887 26.06 L 22.118 36.478 C 21.146 37.976 22.211 39.966 23.98 39.966 L 31.447 39.966 C 32.197 39.966 32.897 39.585 33.308 38.953 L 41.69 26.053 C 42.176 25.3 42.176 24.33 41.69 23.577 Z"/>
  <!-- chevron blu #2A33FF -->
  <path fill="#2A33FF" d="M 49.451 1.014 C 48.57 -0.342 46.61 -0.334 45.728 1.014 L 41.936 6.858 C 41.444 7.616 41.447 8.594 41.943 9.349 L 51.32 23.57 C 51.813 24.319 51.82 25.304 51.327 26.06 L 44.559 36.478 C 43.585 37.976 44.65 39.966 46.42 39.966 L 53.886 39.966 C 54.637 39.966 55.336 39.585 55.748 38.953 L 64.131 26.052 C 64.617 25.299 64.617 24.329 64.131 23.576 Z"/>
  <style>
    @media (prefers-color-scheme: dark) {
      .logo-text { fill: #F8FAFC; }
    }
  </style>
</svg>
